<svg width="1024" height="1024" version="1.1" xmlns="http://www.w3.org/2000/svg" desc="Created with imagetracer.js version 1.2.6" ><path fill="rgb(0,0,0)" stroke="rgb(0,0,0)" stroke-width="1" opacity="0.9019607843137255" d="M 490.5 294 L 517.5 294 L 518.5 295 L 528.5 295 L 529.5 296 L 547.5 298 Q 568 302.5 585.5 310 Q 633.8 331.2 666 368.5 Q 682 387 694 409.5 L 705 434.5 L 710 452.5 L 712.5 457 L 725.5 456 L 726.5 455 L 738 455 L 737 458.5 L 704.5 509 L 694 499.5 L 663 465.5 L 659 459 L 677.5 459 L 683 458 Q 677.5 432.8 665 413.5 Q 648.6 386.9 625.5 367 Q 598.2 342.8 559.5 330 L 528.5 323 L 520.5 323 L 519.5 322 L 487.5 322 L 486.5 323 L 478.5 323 L 462.5 326 L 431.5 336 Q 393.4 352.9 367 381.5 Q 343.8 406.3 330 440.5 L 323 462.5 L 319 483.5 Q 320.8 489.7 318 491.5 L 318 526.5 L 319 527.5 L 319 534.5 L 322 550.5 L 326 565.5 L 340 597.5 Q 355.4 625.6 378.5 646 Q 401.9 666.6 432 680.5 L 437 698.5 L 444 714 Q 379.9 693.4 341 646.5 Q 315.4 616.6 301 575.5 L 296 557.5 L 292 534.5 L 292 525.5 L 291 524.5 L 291 492.5 L 292 491.5 L 292 482.5 L 293 481.5 L 294 469.5 L 300 444.5 Q 307.1 421.6 318 402.5 Q 337.2 369.2 365.5 345 Q 389.8 323.8 421.5 310 L 451.5 300 L 479.5 295 L 489.5 295 L 490.5 294 Z " /><path fill="rgb(0,0,0)" stroke="rgb(0,0,0)" stroke-width="1" opacity="0.9019607843137255" d="M 595.5 368 Q 598.3 367.4 597 373.5 L 599 382.5 L 599 410.5 L 598 411.5 L 597 423.5 L 592 440.5 Q 584.4 460.4 573 476.5 L 551 503.5 L 493 562.5 L 474 588.5 Q 466 602 461 618.5 L 457 637.5 L 456 657.5 L 457 658.5 L 457 670.5 L 458 671.5 L 458 678.5 L 461 694.5 L 469 717.5 L 465 714.5 Q 453.3 699.2 447 678.5 L 443 655.5 L 443 635.5 L 448 608.5 Q 453.4 591.4 462 577.5 Q 472.6 560.1 486 545.5 L 541 489.5 L 562 464.5 Q 571.5 452 578 436.5 L 582 424.5 L 584 411 Q 581.3 409.9 582 412.5 Q 573.9 429.4 560.5 441 Q 551.2 449.7 538.5 455 L 527.5 458 L 511.5 458 L 496.5 454 L 468.5 441 L 451.5 435 L 430.5 431 L 421.5 431 L 422.5 433 Q 452.4 444.6 471 467.5 Q 481 479.5 486 496.5 L 488 507.5 L 488 519.5 L 479.5 532 Q 477.3 532.8 478 530.5 L 479 529.5 L 479 517.5 L 474 496.5 L 468 484.5 L 454 466 L 432.5 450 L 416.5 442 L 396.5 435 L 372 430.5 L 382.5 425 L 399.5 420 L 423.5 418 L 424.5 419 L 442.5 420 L 455.5 423 L 472.5 429 L 505.5 444 L 515.5 446 L 527.5 446 L 539.5 443 L 547.5 439 L 566 422.5 L 576 404.5 L 574.5 403 L 560.5 401 L 559 399.5 Q 577.3 387.8 592 372.5 L 595.5 368 Z " /><path fill="rgb(0,0,0)" stroke="rgb(0,0,0)" stroke-width="1" opacity="0.9019607843137255" d="M 499.5 370 Q 522.8 367.7 530 381.5 Q 535.3 388.7 535 401.5 Q 532.7 414.7 523.5 421 Q 516.7 427.7 501.5 426 Q 491.8 423.7 486 417.5 L 479 405.5 L 478 395.5 L 481 384.5 L 490.5 374 L 499.5 370 Z " /><path fill="rgb(0,0,0)" stroke="rgb(0,0,0)" stroke-width="1" opacity="0.9019607843137255" d="M 550.5 523 L 557 545.5 L 560 562.5 L 561 589.5 L 560 590.5 L 560 601.5 L 559 602.5 L 558 613.5 L 554 628.5 L 546 650.5 Q 533.7 672.2 525 697.5 L 522 711.5 L 522 726.5 L 523 729.5 L 517 724.5 Q 509 714 506 698.5 L 505 684.5 L 504 683.5 L 504 670.5 L 505 669.5 L 505 658.5 L 506 657.5 L 506 649.5 L 507 648.5 L 508 632.5 L 509 631.5 L 509 607.5 Q 506.7 606.3 508 601.5 L 506.5 600 Q 480.1 629.6 471.5 677 L 471 652.5 L 474 637.5 L 484 613.5 Q 495.7 591.7 513.5 576 L 527.5 566 L 527 567.5 L 517 580.5 L 516 586.5 L 520 602.5 L 521 625.5 L 520 626.5 L 520 636.5 L 519 637.5 L 517 665.5 L 516 666.5 L 516 688 Q 518.7 689.1 518 686.5 L 534 650.5 L 543 621.5 L 545 604.5 L 546 603.5 L 546 572.5 L 539 534.5 L 550.5 523 Z " /><path fill="rgb(0,0,0)" stroke="rgb(0,0,0)" stroke-width="1" opacity="0" d="M 0 0 L 1024 0 L 1024 1024 L 0 1024 L 0 0 Z M 491 294 L 490 295 L 480 295 L 452 300 L 422 310 Q 390 324 366 345 Q 337 369 318 403 Q 307 422 300 445 L 294 470 L 293 482 L 292 483 L 292 492 L 291 493 L 291 525 L 292 526 L 292 535 L 296 558 L 301 576 Q 315 617 341 647 Q 380 693 444 714 L 437 699 L 432 681 Q 402 667 379 646 Q 355 626 340 598 L 326 566 L 322 551 L 319 535 L 319 528 L 318 527 L 318 492 Q 321 490 319 484 L 323 463 L 330 441 Q 344 406 367 382 Q 393 353 432 336 L 463 326 L 479 323 L 487 323 L 488 322 L 520 322 L 521 323 L 529 323 L 560 330 Q 598 343 626 367 Q 649 387 665 414 Q 678 433 683 458 L 678 459 L 659 459 L 663 466 L 694 500 L 705 509 L 737 459 L 738 455 L 727 455 L 726 456 L 713 457 L 710 453 L 705 435 L 694 410 Q 682 387 666 369 Q 634 331 586 310 Q 568 302 548 298 L 530 296 L 529 295 L 519 295 L 518 294 L 491 294 Z M 596 368 L 592 373 Q 577 388 559 400 L 561 401 L 575 403 L 576 405 L 566 423 L 548 439 L 540 443 L 528 446 L 516 446 L 506 444 L 473 429 L 456 423 L 443 420 L 425 419 L 424 418 L 400 420 L 383 425 L 372 431 L 397 435 L 417 442 L 433 450 L 454 466 L 468 485 L 474 497 L 479 518 L 479 530 L 478 531 Q 477 533 480 532 L 488 520 L 488 508 L 486 497 Q 481 479 471 468 Q 452 445 423 433 L 422 431 L 431 431 L 452 435 L 469 441 L 497 454 L 512 458 L 528 458 L 539 455 Q 551 450 561 441 Q 574 429 582 413 Q 581 410 584 411 L 582 425 L 578 437 Q 571 452 562 465 L 541 490 L 486 546 Q 473 560 462 578 Q 453 591 448 609 L 443 636 L 443 656 L 447 679 Q 453 699 465 715 L 468 717 L 461 695 L 458 679 L 458 672 L 457 671 L 457 659 L 456 658 L 457 638 L 461 619 Q 466 602 474 589 L 493 563 L 551 504 L 573 477 Q 584 460 592 441 L 597 424 L 598 412 L 599 411 L 599 383 L 597 374 Q 598 367 596 368 Z M 500 370 L 491 374 L 481 385 L 478 396 L 479 406 L 486 418 Q 492 424 502 426 Q 517 428 524 421 Q 533 415 535 402 Q 535 389 530 382 Q 523 368 500 370 Z M 551 523 L 539 535 L 546 573 L 546 604 L 545 605 L 543 622 L 534 651 L 518 687 Q 519 689 516 688 L 516 667 L 517 666 L 519 638 L 520 637 L 520 627 L 521 626 L 520 603 L 516 587 L 517 581 L 527 567 L 524 568 L 514 576 Q 496 592 484 614 L 474 638 L 471 653 L 472 677 Q 480 630 507 600 L 508 602 Q 507 606 509 608 L 509 632 L 508 633 L 507 649 L 506 650 L 506 658 L 505 659 L 505 670 L 504 671 L 504 684 L 505 685 L 506 699 Q 509 714 517 725 L 523 730 L 522 727 L 522 712 L 525 698 Q 534 672 546 651 L 554 629 L 558 614 L 559 603 L 560 602 L 560 591 L 561 590 L 560 563 L 557 546 L 551 523 Z " /></svg>